<mxfile host="Electron" modified="2023-09-27T11:42:45.222Z" agent="Mozilla/5.0 (Windows NT 10.0; Win64; x64) AppleWebKit/537.36 (KHTML, like Gecko) draw.io/21.8.2 Chrome/114.0.5735.289 Electron/25.8.1 Safari/537.36" etag="LmRUabQv7LISvzu4Iu4Y" version="21.8.2" type="device">
  <diagram name="Page-1" id="kZrsFgjnLbIswgU_t0JD">
    <mxGraphModel dx="1595" dy="697" grid="0" gridSize="10" guides="1" tooltips="1" connect="1" arrows="1" fold="1" page="0" pageScale="1" pageWidth="850" pageHeight="1100" math="0" shadow="0">
      <root>
        <mxCell id="0" />
        <mxCell id="1" parent="0" />
        <mxCell id="2Txt3A5peZQAwbSSzDbS-8" value="VPC" style="points=[[0,0],[0.25,0],[0.5,0],[0.75,0],[1,0],[1,0.25],[1,0.5],[1,0.75],[1,1],[0.75,1],[0.5,1],[0.25,1],[0,1],[0,0.75],[0,0.5],[0,0.25]];outlineConnect=0;gradientColor=none;html=1;whiteSpace=wrap;fontSize=12;fontStyle=0;container=1;pointerEvents=0;collapsible=0;recursiveResize=0;shape=mxgraph.aws4.group;grIcon=mxgraph.aws4.group_vpc;strokeColor=#248814;fillColor=none;verticalAlign=top;align=left;spacingLeft=30;fontColor=#AAB7B8;dashed=0;" parent="1" vertex="1">
          <mxGeometry x="40" y="120" width="740" height="480" as="geometry" />
        </mxCell>
        <mxCell id="2Txt3A5peZQAwbSSzDbS-12" value="Public Subnet" style="sketch=0;outlineConnect=0;gradientColor=none;html=1;whiteSpace=wrap;fontSize=12;fontStyle=0;shape=mxgraph.aws4.group;grIcon=mxgraph.aws4.group_subnet;strokeColor=#E8E8E8;fillColor=none;verticalAlign=top;align=left;spacingLeft=30;fontColor=#E8E8E8;dashed=0;" parent="2Txt3A5peZQAwbSSzDbS-8" vertex="1">
          <mxGeometry x="100" y="30" width="150" height="420" as="geometry" />
        </mxCell>
        <mxCell id="2Txt3A5peZQAwbSSzDbS-13" value="Private Subnet" style="sketch=0;outlineConnect=0;gradientColor=none;html=1;whiteSpace=wrap;fontSize=12;fontStyle=0;shape=mxgraph.aws4.group;grIcon=mxgraph.aws4.group_subnet;strokeColor=#E8E8E8;fillColor=none;verticalAlign=top;align=left;spacingLeft=30;fontColor=#E8E8E8;dashed=0;" parent="2Txt3A5peZQAwbSSzDbS-8" vertex="1">
          <mxGeometry x="340" y="30" width="160" height="420" as="geometry" />
        </mxCell>
        <mxCell id="2Txt3A5peZQAwbSSzDbS-11" value="mount" style="edgeStyle=orthogonalEdgeStyle;rounded=0;orthogonalLoop=1;jettySize=auto;html=1;strokeWidth=3;endArrow=none;endFill=0;fontSize=14;labelPosition=center;verticalLabelPosition=top;align=center;verticalAlign=bottom;" parent="2Txt3A5peZQAwbSSzDbS-8" source="2Txt3A5peZQAwbSSzDbS-12" target="2Txt3A5peZQAwbSSzDbS-13" edge="1">
          <mxGeometry relative="1" as="geometry">
            <mxPoint x="204" y="225" as="sourcePoint" />
            <mxPoint x="331" y="139" as="targetPoint" />
          </mxGeometry>
        </mxCell>
        <mxCell id="2Txt3A5peZQAwbSSzDbS-7" style="edgeStyle=orthogonalEdgeStyle;rounded=0;orthogonalLoop=1;jettySize=auto;html=1;strokeWidth=3;endArrow=block;endFill=1;exitX=0.5;exitY=1;exitDx=0;exitDy=0;exitPerimeter=0;entryX=1;entryY=0.25;entryDx=0;entryDy=0;entryPerimeter=0;strokeColor=#33FF33;" parent="2Txt3A5peZQAwbSSzDbS-8" target="2Txt3A5peZQAwbSSzDbS-4" edge="1">
          <mxGeometry relative="1" as="geometry">
            <mxPoint x="629" y="258" as="sourcePoint" />
            <mxPoint x="639" y="190" as="targetPoint" />
          </mxGeometry>
        </mxCell>
        <mxCell id="Qt7lo6SFgkZbqscHVGf_-1" value="Security Group" style="fontStyle=0;verticalAlign=top;align=center;spacingTop=-2;fillColor=none;rounded=0;whiteSpace=wrap;html=1;strokeColor=#FF0000;strokeWidth=2;dashed=1;container=1;collapsible=0;expand=0;recursiveResize=0;" vertex="1" parent="2Txt3A5peZQAwbSSzDbS-8">
          <mxGeometry x="120" y="140" width="110" height="160" as="geometry" />
        </mxCell>
        <mxCell id="2Txt3A5peZQAwbSSzDbS-2" value="EC2" style="sketch=0;points=[[0,0,0],[0.25,0,0],[0.5,0,0],[0.75,0,0],[1,0,0],[0,1,0],[0.25,1,0],[0.5,1,0],[0.75,1,0],[1,1,0],[0,0.25,0],[0,0.5,0],[0,0.75,0],[1,0.25,0],[1,0.5,0],[1,0.75,0]];outlineConnect=0;fontColor=#FFFFFF;fillColor=#ED7100;strokeColor=#ffffff;dashed=0;verticalLabelPosition=bottom;verticalAlign=top;align=center;html=1;fontSize=15;fontStyle=1;aspect=fixed;shape=mxgraph.aws4.resourceIcon;resIcon=mxgraph.aws4.ec2;" parent="2Txt3A5peZQAwbSSzDbS-8" vertex="1">
          <mxGeometry x="136" y="180" width="78" height="78" as="geometry" />
        </mxCell>
        <mxCell id="Qt7lo6SFgkZbqscHVGf_-3" value="Security Group" style="fontStyle=0;verticalAlign=top;align=center;spacingTop=-2;fillColor=none;rounded=0;whiteSpace=wrap;html=1;strokeColor=#FF0000;strokeWidth=2;dashed=1;container=1;collapsible=0;expand=0;recursiveResize=0;" vertex="1" parent="2Txt3A5peZQAwbSSzDbS-8">
          <mxGeometry x="365" y="70" width="110" height="160" as="geometry" />
        </mxCell>
        <mxCell id="2Txt3A5peZQAwbSSzDbS-1" value="ðŸ”´EFS&amp;nbsp; &amp;nbsp;&amp;nbsp;&lt;br&gt;Unencrypted" style="sketch=0;points=[[0,0,0],[0.25,0,0],[0.5,0,0],[0.75,0,0],[1,0,0],[0,1,0],[0.25,1,0],[0.5,1,0],[0.75,1,0],[1,1,0],[0,0.25,0],[0,0.5,0],[0,0.75,0],[1,0.25,0],[1,0.5,0],[1,0.75,0]];outlineConnect=0;fontColor=#FFFFFF;fillColor=#7AA116;strokeColor=#ffffff;dashed=0;verticalLabelPosition=bottom;verticalAlign=top;align=center;html=1;fontSize=15;fontStyle=1;aspect=fixed;shape=mxgraph.aws4.resourceIcon;resIcon=mxgraph.aws4.elastic_file_system;" parent="Qt7lo6SFgkZbqscHVGf_-3" vertex="1">
          <mxGeometry x="16" y="32" width="78" height="78" as="geometry" />
        </mxCell>
        <mxCell id="2Txt3A5peZQAwbSSzDbS-6" style="edgeStyle=orthogonalEdgeStyle;rounded=0;orthogonalLoop=1;jettySize=auto;html=1;strokeWidth=3;endArrow=block;endFill=1;entryX=0.5;entryY=0;entryDx=0;entryDy=0;entryPerimeter=0;strokeColor=#33FF33;" parent="2Txt3A5peZQAwbSSzDbS-8" source="2Txt3A5peZQAwbSSzDbS-1" target="2Txt3A5peZQAwbSSzDbS-5" edge="1">
          <mxGeometry relative="1" as="geometry">
            <mxPoint x="228" y="99" as="sourcePoint" />
            <mxPoint x="400" y="99" as="targetPoint" />
          </mxGeometry>
        </mxCell>
        <mxCell id="2Txt3A5peZQAwbSSzDbS-5" value="DataSync" style="sketch=0;points=[[0,0,0],[0.25,0,0],[0.5,0,0],[0.75,0,0],[1,0,0],[0,1,0],[0.25,1,0],[0.5,1,0],[0.75,1,0],[1,1,0],[0,0.25,0],[0,0.5,0],[0,0.75,0],[1,0.25,0],[1,0.5,0],[1,0.75,0]];outlineConnect=0;fontColor=#FFFFFF;fillColor=#01A88D;strokeColor=#ffffff;dashed=0;verticalLabelPosition=bottom;verticalAlign=top;align=center;html=1;fontSize=15;fontStyle=1;aspect=fixed;shape=mxgraph.aws4.resourceIcon;resIcon=mxgraph.aws4.datasync;labelBackgroundColor=default;" parent="2Txt3A5peZQAwbSSzDbS-8" vertex="1">
          <mxGeometry x="590" y="170" width="78" height="78" as="geometry" />
        </mxCell>
        <mxCell id="Qt7lo6SFgkZbqscHVGf_-4" value="Security Group" style="fontStyle=0;verticalAlign=top;align=center;spacingTop=-2;fillColor=none;rounded=0;whiteSpace=wrap;html=1;strokeColor=#FF0000;strokeWidth=2;dashed=1;container=1;collapsible=0;expand=0;recursiveResize=0;" vertex="1" parent="2Txt3A5peZQAwbSSzDbS-8">
          <mxGeometry x="365" y="258" width="110" height="160" as="geometry" />
        </mxCell>
        <mxCell id="2Txt3A5peZQAwbSSzDbS-4" value="ðŸŸ¢EFS&amp;nbsp; &amp;nbsp;&amp;nbsp;&lt;br&gt;Encrypted" style="sketch=0;points=[[0,0,0],[0.25,0,0],[0.5,0,0],[0.75,0,0],[1,0,0],[0,1,0],[0.25,1,0],[0.5,1,0],[0.75,1,0],[1,1,0],[0,0.25,0],[0,0.5,0],[0,0.75,0],[1,0.25,0],[1,0.5,0],[1,0.75,0]];outlineConnect=0;fontColor=#FFFFFF;fillColor=#7AA116;strokeColor=#ffffff;dashed=0;verticalLabelPosition=bottom;verticalAlign=top;align=center;html=1;fontSize=15;fontStyle=1;aspect=fixed;shape=mxgraph.aws4.resourceIcon;resIcon=mxgraph.aws4.elastic_file_system;" parent="2Txt3A5peZQAwbSSzDbS-8" vertex="1">
          <mxGeometry x="381" y="290" width="78" height="78" as="geometry" />
        </mxCell>
        <mxCell id="2Txt3A5peZQAwbSSzDbS-14" value="KMS" style="sketch=0;points=[[0,0,0],[0.25,0,0],[0.5,0,0],[0.75,0,0],[1,0,0],[0,1,0],[0.25,1,0],[0.5,1,0],[0.75,1,0],[1,1,0],[0,0.25,0],[0,0.5,0],[0,0.75,0],[1,0.25,0],[1,0.5,0],[1,0.75,0]];outlineConnect=0;fontColor=#FFFFFF;fillColor=#DD344C;strokeColor=#ffffff;dashed=0;verticalLabelPosition=bottom;verticalAlign=top;align=center;html=1;fontSize=15;fontStyle=1;aspect=fixed;shape=mxgraph.aws4.resourceIcon;resIcon=mxgraph.aws4.key_management_service;" parent="2Txt3A5peZQAwbSSzDbS-8" vertex="1">
          <mxGeometry x="590" y="340" width="60" height="60" as="geometry" />
        </mxCell>
        <mxCell id="2Txt3A5peZQAwbSSzDbS-17" style="edgeStyle=orthogonalEdgeStyle;rounded=0;orthogonalLoop=1;jettySize=auto;html=1;exitX=1;exitY=0.75;exitDx=0;exitDy=0;exitPerimeter=0;strokeWidth=3;endArrow=block;endFill=1;" parent="2Txt3A5peZQAwbSSzDbS-8" source="2Txt3A5peZQAwbSSzDbS-4" target="2Txt3A5peZQAwbSSzDbS-14" edge="1">
          <mxGeometry relative="1" as="geometry" />
        </mxCell>
        <mxCell id="2Txt3A5peZQAwbSSzDbS-15" value="" style="sketch=0;outlineConnect=0;fontColor=#232F3E;gradientColor=none;fillColor=#8C4FFF;strokeColor=none;dashed=0;verticalLabelPosition=bottom;verticalAlign=top;align=center;html=1;fontSize=12;fontStyle=0;aspect=fixed;pointerEvents=1;shape=mxgraph.aws4.internet_gateway;labelBackgroundColor=none;" parent="1" vertex="1">
          <mxGeometry x="-50" y="330.5" width="59" height="59" as="geometry" />
        </mxCell>
        <mxCell id="2Txt3A5peZQAwbSSzDbS-16" style="edgeStyle=orthogonalEdgeStyle;rounded=0;orthogonalLoop=1;jettySize=auto;html=1;strokeWidth=3;endArrow=none;endFill=0;" parent="1" source="2Txt3A5peZQAwbSSzDbS-15" target="2Txt3A5peZQAwbSSzDbS-12" edge="1">
          <mxGeometry relative="1" as="geometry">
            <mxPoint x="244" y="409" as="sourcePoint" />
            <mxPoint x="431" y="487" as="targetPoint" />
          </mxGeometry>
        </mxCell>
      </root>
    </mxGraphModel>
  </diagram>
</mxfile>
